<svg width="28" height="28" viewBox="0 0 28 28" fill="none" xmlns="http://www.w3.org/2000/svg">
<g id="linkedin">
<path id="Vector" d="M18.8802 9.21582C20.6624 9.21582 22.3717 9.92382 23.6319 11.1841C24.8922 12.4443 25.6002 14.1536 25.6002 15.9358V23.7758H21.1202V15.9358C21.1202 15.3417 20.8842 14.772 20.4641 14.3519C20.044 13.9318 19.4742 13.6958 18.8802 13.6958C18.2861 13.6958 17.7163 13.9318 17.2962 14.3519C16.8762 14.772 16.6402 15.3417 16.6402 15.9358V23.7758H12.1602V15.9358C12.1602 14.1536 12.8682 12.4443 14.1284 11.1841C15.3886 9.92382 17.0979 9.21582 18.8802 9.21582Z" stroke="#6681B9" stroke-width="2.24" stroke-linecap="round" stroke-linejoin="round"/>
<path id="Vector_2" d="M7.6802 10.3359H3.2002V23.7759H7.6802V10.3359Z" stroke="#6681B9" stroke-width="2.24" stroke-linecap="round" stroke-linejoin="round"/>
<path id="Vector_3" d="M5.4402 6.97609C6.67731 6.97609 7.6802 5.97321 7.6802 4.73609C7.6802 3.49898 6.67731 2.49609 5.4402 2.49609C4.20308 2.49609 3.2002 3.49898 3.2002 4.73609C3.2002 5.97321 4.20308 6.97609 5.4402 6.97609Z" stroke="#6681B9" stroke-width="2.24" stroke-linecap="round" stroke-linejoin="round"/>
</g>
</svg>
