<svg width="44" height="44" viewBox="0 0 44 44" fill="none" xmlns="http://www.w3.org/2000/svg">
<g id="Group 7" filter="url(#filter0_i_591_11)">
<path id="Rectangle 49" d="M12.7594 1.44023L5.66757 3.95403L17.7015 41.8394C21.8975 40.5066 24.196 36.0023 22.8129 31.8226L12.7594 1.44023Z" fill="url(#paint0_linear_591_11)" fill-opacity="0.6"/>
<path id="Rectangle 50" d="M28.5681 12.8088L21.8778 16.2473L34.2714 41.834C38.2281 39.9174 39.8461 35.1301 37.8635 31.2062L28.5681 12.8088Z" fill="url(#paint1_linear_591_11)" fill-opacity="0.6"/>
<path id="Rectangle 46" d="M3.87227 8.55168C4.35514 4.15988 8.30684 0.991056 12.6986 1.47393L8.58935 38.8487C8.34792 41.0446 6.37207 42.6291 4.17616 42.3876C1.98026 42.1462 0.395856 40.1703 0.637291 37.9744L3.87227 8.55168Z" fill="url(#paint2_linear_591_11)"/>
<path id="Rectangle 47" d="M20.3786 19.6973C20.9381 15.3146 24.9445 12.2152 29.3272 12.7747C28.0055 21.6952 27.2108 27.64 26.3656 34.9576C25.8616 39.3218 21.9029 42.4519 17.5451 41.8956L20.3786 19.6973Z" fill="url(#paint3_linear_591_11)"/>
<path id="Rectangle 48" d="M35.4232 27.7163C35.6646 25.5204 37.6405 23.936 39.8364 24.1774C42.0323 24.4188 43.6167 26.3947 43.3753 28.5906L42.6264 35.4012C42.1436 39.793 38.1919 42.9619 33.8001 42.479L35.4232 27.7163Z" fill="url(#paint4_linear_591_11)"/>
</g>
<defs>
<filter id="filter0_i_591_11" x="0.612793" y="0.625781" width="42.7866" height="41.9016" filterUnits="userSpaceOnUse" color-interpolation-filters="sRGB">
<feFlood flood-opacity="0" result="BackgroundImageFix"/>
<feBlend mode="normal" in="SourceGraphic" in2="BackgroundImageFix" result="shape"/>
<feColorMatrix in="SourceAlpha" type="matrix" values="0 0 0 0 0 0 0 0 0 0 0 0 0 0 0 0 0 0 127 0" result="hardAlpha"/>
<feOffset dy="-0.8"/>
<feGaussianBlur stdDeviation="1.6"/>
<feComposite in2="hardAlpha" operator="arithmetic" k2="-1" k3="1"/>
<feColorMatrix type="matrix" values="0 0 0 0 0 0 0 0 0 0 0 0 0 0 0 0 0 0 1 0"/>
<feBlend mode="normal" in2="shape" result="effect1_innerShadow_591_11"/>
</filter>
<linearGradient id="paint0_linear_591_11" x1="13.8004" y1="16.5992" x2="21.5138" y2="40.6285" gradientUnits="userSpaceOnUse">
<stop offset="0.447917" stop-color="#303CDE"/>
<stop offset="1" stop-color="#303CDE" stop-opacity="0"/>
</linearGradient>
<linearGradient id="paint1_linear_591_11" x1="25.4001" y1="14.3433" x2="37.8714" y2="40.0902" gradientUnits="userSpaceOnUse">
<stop offset="0.494792" stop-color="#303CDE"/>
<stop offset="1" stop-color="#303CDE" stop-opacity="0"/>
</linearGradient>
<linearGradient id="paint2_linear_591_11" x1="3.4001" y1="38.9996" x2="11.4001" y2="-2.60039" gradientUnits="userSpaceOnUse">
<stop offset="0.182292" stop-color="#C018CE"/>
<stop offset="1" stop-color="#0A7ACC"/>
</linearGradient>
<linearGradient id="paint3_linear_591_11" x1="20.7691" y1="40.5553" x2="28.4148" y2="15.0848" gradientUnits="userSpaceOnUse">
<stop offset="0.296875" stop-color="#C018CE"/>
<stop offset="1" stop-color="#0A7ACC"/>
</linearGradient>
<linearGradient id="paint4_linear_591_11" x1="39.8364" y1="24.1774" x2="36.2002" y2="43.7998" gradientUnits="userSpaceOnUse">
<stop offset="0.255208" stop-color="#C018CE"/>
<stop offset="1" stop-color="#2240E0"/>
</linearGradient>
</defs>
</svg>
