<svg width="28" height="28" viewBox="0 0 28 28" fill="none" xmlns="http://www.w3.org/2000/svg">
<g id="twitter" clip-path="url(#clip0_152_623)">
<path id="Vector" d="M26.6004 3.61575C25.5279 4.37229 24.3404 4.95092 23.0836 5.32935C22.4091 4.55377 21.5127 4.00405 20.5155 3.75455C19.5184 3.50505 18.4687 3.56781 17.5084 3.93434C16.5481 4.30087 15.7235 4.95348 15.1462 5.80392C14.5689 6.65435 14.2667 7.66157 14.2804 8.68935V9.80935C12.3122 9.86039 10.3619 9.42387 8.60318 8.53865C6.84448 7.65344 5.332 6.34703 4.20045 4.73575C4.20045 4.73575 -0.279551 14.8158 9.80045 19.2958C7.49384 20.8615 4.74606 21.6466 1.96045 21.5358C12.0404 27.1358 24.3604 21.5358 24.3604 8.65575C24.3594 8.34378 24.3294 8.03258 24.2708 7.72615C25.4139 6.59887 26.2206 5.17559 26.6004 3.61575Z" stroke="#6681B9" stroke-width="2.24" stroke-linecap="round" stroke-linejoin="round"/>
</g>
<defs>
<clipPath id="clip0_152_623">
<rect width="26.88" height="26.88" fill="white" transform="translate(0.840332 0.255859)"/>
</clipPath>
</defs>
</svg>
